{
  "accessors": [
    {
      "bufferView": 2,
      "componentType": 5126,
      "count": 3,
      "max": [
        0.10751499980688095,
        -0.3346410095691681,
        4.799130916595459
      ],
      "min": [
        -0.07141000032424927,
        -0.34368300437927246,
        4.799130916595459
      ],
      "type": "VEC3"
    },
    {
      "bufferView": 1,
      "componentType": 5126,
      "count": 3,
      "max": [
        0.0,
        0.0
      ],
      "min": [
        0.0,
        0.0
      ],
      "type": "VEC2"
    },
    {
      "bufferView": 0,
      "componentType": 5125,
      "count": 4,
      "type": "SCALAR"
    },
    {
      "bufferView": 2,
      "byteOffset": 36,
      "componentType": 5126,
      "count": 1430,
      "max": [
        0.7703329920768738,
        0.9515079855918884,
        2.936422109603882
      ],
      "min": [
        -0.7831850051879883,
        -0.6025140285491943,
        2.7919158935546875
      ],
      "type": "VEC3"
    },
    {
      "bufferView": 2,
      "byteOffset": 17196,
      "componentType": 5126,
      "count": 1430,
      "max": [
        0.9951857328414917,
        0.9950864911079407,
        0.9999102354049683
      ],
      "min": [
        -0.9951857328414917,
        -0.9950864911079407,
        -0.999915599822998
      ],
      "type": "VEC3"
    },
    {
      "bufferView": 1,
      "byteOffset": 24,
      "componentType": 5126,
      "count": 1430,
      "max": [
        0.6000000238418579,
        1.0
      ],
      "min": [
        0.0,
        0.0
      ],
      "type": "VEC2"
    },
    {
      "bufferView": 0,
      "byteOffset": 16,
      "componentType": 5125,
      "count": 2844,
      "type": "SCALAR"
    },
    {
      "bufferView": 2,
      "byteOffset": 34356,
      "componentType": 5126,
      "count": 7743,
      "max": [
        1.0114330053329468,
        1.384166955947876,
        5.548858165740967
      ],
      "min": [
        -0.9753280282020569,
        -0.8281559944152832,
        2.801131010055542
      ],
      "type": "VEC3"
    },
    {
      "bufferView": 2,
      "byteOffset": 127272,
      "componentType": 5126,
      "count": 7743,
      "max": [
        1.0,
        1.0,
        1.0
      ],
      "min": [
        -1.0,
        -1.0,
        -1.0
      ],
      "type": "VEC3"
    },
    {
      "bufferView": 1,
      "byteOffset": 11464,
      "componentType": 5126,
      "count": 7743,
      "max": [
        0.8034300208091736,
        1.2471380233764648
      ],
      "min": [
        0.0,
        -0.12512899935245514
      ],
      "type": "VEC2"
    },
    {
      "bufferView": 0,
      "byteOffset": 11392,
      "componentType": 5125,
      "count": 17412,
      "type": "SCALAR"
    },
    {
      "bufferView": 2,
      "byteOffset": 220188,
      "componentType": 5126,
      "count": 2518,
      "max": [
        1.141548991203308,
        1.1613349914550781,
        2.817924976348877
      ],
      "min": [
        -1.1637099981307983,
        -1.1439239978790283,
        -1.1892629861831665
      ],
      "type": "VEC3"
    },
    {
      "bufferView": 2,
      "byteOffset": 250404,
      "componentType": 5126,
      "count": 2518,
      "max": [
        0.9996803402900696,
        0.9993382692337036,
        1.0
      ],
      "min": [
        -0.999600350856781,
        -0.9974833726882935,
        -1.0
      ],
      "type": "VEC3"
    },
    {
      "bufferView": 1,
      "byteOffset": 73408,
      "componentType": 5126,
      "count": 2518,
      "max": [
        0.9953719973564148,
        1.4071660041809082
      ],
      "min": [
        0.14903800189495087,
        -0.9956470131874084
      ],
      "type": "VEC2"
    },
    {
      "bufferView": 0,
      "byteOffset": 81040,
      "componentType": 5125,
      "count": 10908,
      "type": "SCALAR"
    }
  ],
  "asset": {
    "extras": {
      "author": "James Bayer (https://sketchfab.com/james16bayer)",
      "license": "CC-BY-4.0 (http://creativecommons.org/licenses/by/4.0/)",
      "source": "https://sketchfab.com/3d-models/cast-iron-water-hand-pump-9af93cb82a6b4804b61975c5b9975264",
      "title": "Cast Iron Water Hand Pump"
    },
    "generator": "Sketchfab-12.68.0",
    "version": "2.0"
  },
  "bufferViews": [
    {
      "buffer": 0,
      "byteLength": 124672,
      "name": "floatBufferViews",
      "target": 34963
    },
    {
      "buffer": 0,
      "byteLength": 93552,
      "byteOffset": 124672,
      "byteStride": 8,
      "name": "floatBufferViews",
      "target": 34962
    },
    {
      "buffer": 0,
      "byteLength": 280620,
      "byteOffset": 218224,
      "byteStride": 12,
      "name": "floatBufferViews",
      "target": 34962
    }
  ],
  "buffers": [
    {
      "byteLength": 498844,
      "uri": "scene.bin"
    }
  ],
  "images": [
    {
      "uri": "textures/Material.001_baseColor.jpeg"
    },
    {
      "uri": "textures/Material.004_baseColor.jpeg"
    },
    {
      "uri": "textures/Material.006_metallicRoughness.png"
    }
  ],
  "materials": [
    {
      "doubleSided": true,
      "name": "Material.001",
      "pbrMetallicRoughness": {
        "baseColorTexture": {
          "index": 0
        },
        "metallicFactor": 0.2206252909896286
      }
    },
    {
      "doubleSided": true,
      "name": "Material.004",
      "pbrMetallicRoughness": {
        "baseColorTexture": {
          "index": 1
        },
        "metallicFactor": 0.237725403695633,
        "roughnessFactor": 0.843491542
      }
    },
    {
      "doubleSided": true,
      "name": "Material.006",
      "pbrMetallicRoughness": {
        "baseColorTexture": {
          "index": 0
        },
        "metallicRoughnessTexture": {
          "index": 2
        }
      }
    }
  ],
  "meshes": [
    {
      "name": "Object_0",
      "primitives": [
        {
          "attributes": {
            "POSITION": 0,
            "TEXCOORD_0": 1
          },
          "indices": 2,
          "material": 2,
          "mode": 1
        }
      ]
    },
    {
      "name": "Object_1",
      "primitives": [
        {
          "attributes": {
            "NORMAL": 4,
            "POSITION": 3,
            "TEXCOORD_0": 5
          },
          "indices": 6,
          "material": 2,
          "mode": 4
        }
      ]
    },
    {
      "name": "Object_2",
      "primitives": [
        {
          "attributes": {
            "NORMAL": 8,
            "POSITION": 7,
            "TEXCOORD_0": 9
          },
          "indices": 10,
          "material": 0,
          "mode": 4
        }
      ]
    },
    {
      "name": "Object_3",
      "primitives": [
        {
          "attributes": {
            "NORMAL": 12,
            "POSITION": 11,
            "TEXCOORD_0": 13
          },
          "indices": 14,
          "material": 1,
          "mode": 4
        }
      ]
    }
  ],
  "nodes": [
    {
      "children": [
        1
      ],
      "matrix": [
        1.0,
        0.0,
        0.0,
        0.0,
        0.0,
        2.220446049250313e-16,
        -1.0,
        0.0,
        0.0,
        1.0,
        2.220446049250313e-16,
        0.0,
        0.0,
        0.0,
        0.0,
        1.0
      ],
      "name": "Sketchfab_model"
    },
    {
      "children": [
        2,
        3,
        4,
        5
      ],
      "name": "Cast Iron Water Hand Pump.obj.cleaner.materialmerger.gles"
    },
    {
      "mesh": 0,
      "name": "Object_2"
    },
    {
      "mesh": 1,
      "name": "Object_3"
    },
    {
      "mesh": 2,
      "name": "Object_4"
    },
    {
      "mesh": 3,
      "name": "Object_5"
    }
  ],
  "samplers": [
    {
      "magFilter": 9729,
      "minFilter": 9987,
      "wrapS": 10497,
      "wrapT": 10497
    }
  ],
  "scene": 0,
  "scenes": [
    {
      "name": "Sketchfab_Scene",
      "nodes": [
        0
      ]
    }
  ],
  "textures": [
    {
      "sampler": 0,
      "source": 0
    },
    {
      "sampler": 0,
      "source": 1
    },
    {
      "sampler": 0,
      "source": 2
    }
  ]
}
